<?xml version="1.0" standalone="no"?>
<!DOCTYPE svg PUBLIC "-//W3C//DTD SVG 20010904//EN"
 "http://www.w3.org/TR/2001/REC-SVG-20010904/DTD/svg10.dtd">
<svg version="1.0" xmlns="http://www.w3.org/2000/svg"
 width="500.000000pt" height="500.000000pt" viewBox="0 0 500.000000 500.000000"
 preserveAspectRatio="xMidYMid meet">
<metadata>
Created by potrace 1.14, written by Peter Selinger 2001-2017
</metadata>
<g transform="translate(0.000000,500.000000) scale(0.100000,-0.100000)"
fill="#000000" stroke="none">
<path d="M0 2500 l0 -2500 2500 0 2500 0 0 2500 0 2500 -2500 0 -2500 0 0
-2500z m2322 1024 c120 -17 270 -64 363 -112 84 -45 182 -133 218 -199 76
-140 40 -337 -82 -445 -57 -50 -168 -105 -230 -113 -25 -4 -55 -10 -66 -15
-20 -8 -20 -9 1 -9 12 -1 53 -17 92 -36 90 -45 181 -140 211 -219 84 -224 -30
-497 -257 -614 -125 -65 -177 -77 -332 -76 -187 0 -339 42 -476 129 l-56 36
-64 -41 c-142 -93 -316 -135 -524 -127 -292 11 -446 125 -444 327 1 89 23 146
80 210 51 56 97 85 188 115 135 45 339 31 490 -34 27 -12 51 -19 54 -17 2 3
36 108 74 233 86 284 139 418 201 510 59 89 79 97 220 90 110 -5 163 -17 197
-45 l22 -18 -39 -79 c-52 -103 -98 -223 -90 -232 12 -11 135 15 195 42 69 31
134 93 158 150 21 50 21 142 1 182 -57 109 -217 160 -471 150 -116 -4 -156
-10 -226 -32 -212 -67 -311 -196 -280 -365 13 -70 4 -93 -57 -152 -73 -70
-194 -104 -264 -74 -206 88 -219 376 -26 582 130 139 317 233 569 284 200 41
437 46 650 14z m1568 -710 c117 -35 194 -97 238 -192 23 -48 27 -70 26 -137
-1 -128 -55 -224 -166 -296 -96 -62 -164 -80 -315 -86 l-132 -6 19 -37 c41
-80 130 -129 250 -137 140 -10 262 25 382 109 53 38 119 112 147 166 7 13 21
22 35 22 30 0 90 -40 94 -64 5 -24 -73 -139 -150 -221 -152 -163 -334 -239
-602 -251 -213 -10 -366 26 -495 116 -83 58 -131 121 -171 225 -33 85 -35 259
-3 360 71 225 278 400 526 445 73 13 252 4 317 -16z"/>
<path d="M1997 2504 c-3 -5 -21 -66 -41 -136 -20 -70 -50 -159 -66 -198 l-29
-70 47 -32 c102 -70 209 -94 290 -65 83 31 149 139 159 264 9 99 -25 162 -111
209 -44 24 -65 29 -147 32 -53 2 -99 0 -102 -4z"/>
<path d="M1141 2093 c-47 -24 -60 -66 -34 -102 46 -61 169 -45 245 31 l42 42
-44 20 c-63 28 -165 32 -209 9z"/>
<path d="M3647 2551 c-51 -33 -97 -120 -112 -210 l-7 -44 38 6 c82 13 156 94
170 183 11 77 -28 105 -89 65z"/>
</g>
</svg>
